<mxfile host="app.diagrams.net" modified="2023-04-30T03:16:06.768Z" agent="Mozilla/5.0 (Macintosh; Intel Mac OS X 10_15_7) AppleWebKit/537.36 (KHTML, like Gecko) Chrome/112.0.0.0 Safari/537.36" etag="1EFp_LOOgF1bauEaSFii" version="21.2.3" type="github">
  <diagram name="Page-1" id="ce9EAe9bWDjaVAk1Q1Nn">
    <mxGraphModel dx="1122" dy="645" grid="1" gridSize="10" guides="1" tooltips="1" connect="1" arrows="1" fold="1" page="1" pageScale="1" pageWidth="850" pageHeight="1100" math="0" shadow="0">
      <root>
        <mxCell id="0" />
        <mxCell id="1" parent="0" />
        <mxCell id="jd8njwrvq4XiRTh1a08V-19" value="" style="edgeStyle=orthogonalEdgeStyle;rounded=0;orthogonalLoop=1;jettySize=auto;html=1;endArrow=none;endFill=0;" edge="1" parent="1" source="jd8njwrvq4XiRTh1a08V-1" target="jd8njwrvq4XiRTh1a08V-10">
          <mxGeometry relative="1" as="geometry" />
        </mxCell>
        <mxCell id="jd8njwrvq4XiRTh1a08V-1" value="Controll Server" style="image;points=[];aspect=fixed;html=1;align=center;shadow=0;dashed=0;image=img/lib/allied_telesis/computer_and_terminals/Server_Desktop.svg;" vertex="1" parent="1">
          <mxGeometry x="70" y="266.7" width="52.54" height="66.6" as="geometry" />
        </mxCell>
        <mxCell id="jd8njwrvq4XiRTh1a08V-2" value="W5500 10A Switch" style="shape=image;verticalLabelPosition=bottom;labelBackgroundColor=default;verticalAlign=top;aspect=fixed;imageAspect=0;image=https://ae01.alicdn.com/kf/Hf38e9fd01a5d4a9e8376b8f9a8d5ff57H.jpg;" vertex="1" parent="1">
          <mxGeometry x="570" y="140" width="61.6" height="61.6" as="geometry" />
        </mxCell>
        <mxCell id="jd8njwrvq4XiRTh1a08V-3" value="W5500 10A Switch" style="shape=image;verticalLabelPosition=bottom;labelBackgroundColor=default;verticalAlign=top;aspect=fixed;imageAspect=0;image=https://ae01.alicdn.com/kf/Hf38e9fd01a5d4a9e8376b8f9a8d5ff57H.jpg;" vertex="1" parent="1">
          <mxGeometry x="570" y="240" width="61.6" height="61.6" as="geometry" />
        </mxCell>
        <mxCell id="jd8njwrvq4XiRTh1a08V-4" value="W5500 10A Switch" style="shape=image;verticalLabelPosition=bottom;labelBackgroundColor=default;verticalAlign=top;aspect=fixed;imageAspect=0;image=https://ae01.alicdn.com/kf/Hf38e9fd01a5d4a9e8376b8f9a8d5ff57H.jpg;" vertex="1" parent="1">
          <mxGeometry x="570" y="330" width="61.6" height="61.6" as="geometry" />
        </mxCell>
        <mxCell id="jd8njwrvq4XiRTh1a08V-5" value="W5500 10A Switch" style="shape=image;verticalLabelPosition=bottom;labelBackgroundColor=default;verticalAlign=top;aspect=fixed;imageAspect=0;image=https://ae01.alicdn.com/kf/Hf38e9fd01a5d4a9e8376b8f9a8d5ff57H.jpg;" vertex="1" parent="1">
          <mxGeometry x="570" y="430" width="61.6" height="61.6" as="geometry" />
        </mxCell>
        <mxCell id="jd8njwrvq4XiRTh1a08V-11" value="" style="edgeStyle=orthogonalEdgeStyle;rounded=0;orthogonalLoop=1;jettySize=auto;html=1;endArrow=none;endFill=0;" edge="1" parent="1" source="jd8njwrvq4XiRTh1a08V-6" target="jd8njwrvq4XiRTh1a08V-2">
          <mxGeometry relative="1" as="geometry" />
        </mxCell>
        <mxCell id="jd8njwrvq4XiRTh1a08V-6" value="Fiber to Ethernet" style="shape=image;verticalLabelPosition=bottom;labelBackgroundColor=default;verticalAlign=top;aspect=fixed;imageAspect=0;image=https://lzd-img-global.slatic.net/g/p/1481e3eaa567d60c64e8e4bb11825b50.jpg_2200x2200q80.jpg;" vertex="1" parent="1">
          <mxGeometry x="450" y="135.8" width="70" height="70" as="geometry" />
        </mxCell>
        <mxCell id="jd8njwrvq4XiRTh1a08V-12" value="" style="edgeStyle=orthogonalEdgeStyle;rounded=0;orthogonalLoop=1;jettySize=auto;html=1;endArrow=none;endFill=0;" edge="1" parent="1" source="jd8njwrvq4XiRTh1a08V-7" target="jd8njwrvq4XiRTh1a08V-3">
          <mxGeometry relative="1" as="geometry" />
        </mxCell>
        <mxCell id="jd8njwrvq4XiRTh1a08V-7" value="Fiber to Ethernet" style="shape=image;verticalLabelPosition=bottom;labelBackgroundColor=default;verticalAlign=top;aspect=fixed;imageAspect=0;image=https://lzd-img-global.slatic.net/g/p/1481e3eaa567d60c64e8e4bb11825b50.jpg_2200x2200q80.jpg;" vertex="1" parent="1">
          <mxGeometry x="450" y="235.60000000000002" width="70" height="70" as="geometry" />
        </mxCell>
        <mxCell id="jd8njwrvq4XiRTh1a08V-13" value="" style="edgeStyle=orthogonalEdgeStyle;rounded=0;orthogonalLoop=1;jettySize=auto;html=1;endArrow=none;endFill=0;" edge="1" parent="1" source="jd8njwrvq4XiRTh1a08V-8" target="jd8njwrvq4XiRTh1a08V-4">
          <mxGeometry relative="1" as="geometry" />
        </mxCell>
        <mxCell id="jd8njwrvq4XiRTh1a08V-8" value="Fiber to Ethernet" style="shape=image;verticalLabelPosition=bottom;labelBackgroundColor=default;verticalAlign=top;aspect=fixed;imageAspect=0;image=https://lzd-img-global.slatic.net/g/p/1481e3eaa567d60c64e8e4bb11825b50.jpg_2200x2200q80.jpg;" vertex="1" parent="1">
          <mxGeometry x="450" y="325.6" width="70" height="70" as="geometry" />
        </mxCell>
        <mxCell id="jd8njwrvq4XiRTh1a08V-14" value="" style="edgeStyle=orthogonalEdgeStyle;rounded=0;orthogonalLoop=1;jettySize=auto;html=1;endArrow=none;endFill=0;" edge="1" parent="1" source="jd8njwrvq4XiRTh1a08V-9" target="jd8njwrvq4XiRTh1a08V-5">
          <mxGeometry relative="1" as="geometry" />
        </mxCell>
        <mxCell id="jd8njwrvq4XiRTh1a08V-9" value="Fiber to Ethernet" style="shape=image;verticalLabelPosition=bottom;labelBackgroundColor=default;verticalAlign=top;aspect=fixed;imageAspect=0;image=https://lzd-img-global.slatic.net/g/p/1481e3eaa567d60c64e8e4bb11825b50.jpg_2200x2200q80.jpg;" vertex="1" parent="1">
          <mxGeometry x="460" y="425.8" width="70" height="70" as="geometry" />
        </mxCell>
        <mxCell id="jd8njwrvq4XiRTh1a08V-15" style="edgeStyle=orthogonalEdgeStyle;rounded=0;orthogonalLoop=1;jettySize=auto;html=1;entryX=0;entryY=0.5;entryDx=0;entryDy=0;endArrow=none;endFill=0;" edge="1" parent="1" source="jd8njwrvq4XiRTh1a08V-10" target="jd8njwrvq4XiRTh1a08V-6">
          <mxGeometry relative="1" as="geometry">
            <Array as="points">
              <mxPoint x="360" y="300" />
              <mxPoint x="360" y="171" />
            </Array>
          </mxGeometry>
        </mxCell>
        <mxCell id="jd8njwrvq4XiRTh1a08V-16" style="edgeStyle=orthogonalEdgeStyle;rounded=0;orthogonalLoop=1;jettySize=auto;html=1;endArrow=none;endFill=0;" edge="1" parent="1" source="jd8njwrvq4XiRTh1a08V-10" target="jd8njwrvq4XiRTh1a08V-7">
          <mxGeometry relative="1" as="geometry">
            <Array as="points">
              <mxPoint x="360" y="300" />
              <mxPoint x="360" y="271" />
            </Array>
          </mxGeometry>
        </mxCell>
        <mxCell id="jd8njwrvq4XiRTh1a08V-17" style="edgeStyle=orthogonalEdgeStyle;rounded=0;orthogonalLoop=1;jettySize=auto;html=1;endArrow=none;endFill=0;" edge="1" parent="1" source="jd8njwrvq4XiRTh1a08V-10" target="jd8njwrvq4XiRTh1a08V-8">
          <mxGeometry relative="1" as="geometry">
            <Array as="points">
              <mxPoint x="360" y="300" />
              <mxPoint x="360" y="361" />
            </Array>
          </mxGeometry>
        </mxCell>
        <mxCell id="jd8njwrvq4XiRTh1a08V-18" style="edgeStyle=orthogonalEdgeStyle;rounded=0;orthogonalLoop=1;jettySize=auto;html=1;entryX=0;entryY=0.5;entryDx=0;entryDy=0;endArrow=none;endFill=0;" edge="1" parent="1" source="jd8njwrvq4XiRTh1a08V-10" target="jd8njwrvq4XiRTh1a08V-9">
          <mxGeometry relative="1" as="geometry">
            <Array as="points">
              <mxPoint x="360" y="300" />
              <mxPoint x="360" y="461" />
            </Array>
          </mxGeometry>
        </mxCell>
        <mxCell id="jd8njwrvq4XiRTh1a08V-10" value="" style="image;html=1;image=img/lib/clip_art/networking/Switch_128x128.png" vertex="1" parent="1">
          <mxGeometry x="200" y="260" width="80" height="80" as="geometry" />
        </mxCell>
        <mxCell id="jd8njwrvq4XiRTh1a08V-20" value="Fiber" style="text;html=1;strokeColor=none;fillColor=none;align=center;verticalAlign=middle;whiteSpace=wrap;rounded=0;" vertex="1" parent="1">
          <mxGeometry x="300" y="270" width="60" height="30" as="geometry" />
        </mxCell>
        <mxCell id="jd8njwrvq4XiRTh1a08V-23" value="" style="rounded=0;whiteSpace=wrap;html=1;fillColor=none;" vertex="1" parent="1">
          <mxGeometry x="36.27" y="120" width="653.73" height="430" as="geometry" />
        </mxCell>
      </root>
    </mxGraphModel>
  </diagram>
</mxfile>
